# xmcd
#
# Track frame offsets: 
#        150
#        12996
#        25893
#        43065
#        55809
#        66667
#        80429
#        97093
#        107506
#        120171
#        131173
#        144533
#
# Disc length: 2173 seconds
#
# Revision: 2
# Processed by: cddbd v1.5.2PL0 Copyright (c) Steve Scherf et al.
# Submitted via: ExactAudioCopyFreeDBPlugin 1.0
#
DISCID=a5087b0c
DTITLE=Marvin Gaye - A Tribute to the Great Nat King Cole
DYEAR=1965
DGENRE=Oldies
TTITLE0=Nature Boy
TTITLE1=Ramblin' Rose
TTITLE2=Too Young
TTITLE3=Pretend
TTITLE4=Straighten Up and Fly Right
TTITLE5=Mona Lisa
TTITLE6=Unforgettable
TTITLE7=To The Ends of the Earth
TTITLE8=Sweet Lorraine
TTITLE9=It's Only a Paper Moon
TTITLE10=Send For Me
TTITLE11=Calypso Blues
EXTD=
EXTT0=
EXTT1=
EXTT2=
EXTT3=
EXTT4=
EXTT5=
EXTT6=
EXTT7=
EXTT8=
EXTT9=
EXTT10=
EXTT11=
PLAYORDER=
